# File produced by Open Asset Import Library (http://www.assimp.sf.net)
# (assimp v5.0.1588609223)


# 175 vertex positions
v  -0.11498015 0.44182354 1.4304721
v  0 0.41894916 1.4509112
v  0 0.56935585 1.6124015
v  -0.13736391 0.58584189 1.569463
v  0.11498015 0.44182354 1.4304721
v  0.13736391 0.58584189 1.569463
v  0.11805833 0.74147999 1.5188882
v  0 0.73870939 1.5602818
v  -0.11805833 0.74147999 1.5188882
v  -0.26630539 0.99236757 0.28000924
v  0 1.0846658 0.27267355
v  0 1.210166 -0.19394347
v  -0.31407514 1.0824301 -0.19015019
v  0.26630539 0.99236757 0.28000924
v  0.31407514 1.0824301 -0.19015019
v  0.28711176 1.0237827 -0.66854978
v  9.3132257e-10 1.1157335 -0.66158086
v  -0.28711176 1.0237827 -0.66854978
v  -0.3013106 0.37943432 -0.781425
v  0 0.42202991 -0.82643014
v  0 0.18110251 -0.18518049
v  -0.27359378 0.27922773 -0.19005275
v  0.3013106 0.37943432 -0.781425
v  0.27359378 0.27922773 -0.19005275
v  0.25361219 0.33888692 0.15359734
v  0 0.23080941 0.16712996
v  -0.25361219 0.33888692 0.15359734
v  0.3808867 0.70269525 0.30727264
v  0.51176274 0.74766892 -0.20011488
v  0.45588413 0.62207156 -0.75247401
v  -0.3808867 0.70269525 0.30727264
v  -0.51176274 0.74766892 -0.20011488
v  -0.45588413 0.62207156 -0.75247401
v  -0.24373825 0.39723134 0.62655997
v  0 0.28669596 0.6359821
v  0 0.27967411 0.8931604
v  -0.3617447 0.38249075 0.85059816
v  0.24373825 0.39723134 0.62655997
v  0.3617447 0.38249075 0.85059816
v  0.3315798 0.60501444 0.5982939
v  0.46692702 0.67393064 0.81330192
v  0.32830808 0.90884942 0.68169743
v  0.26397333 0.93473268 0.84097105
v  0.19909519 1.0590765 0.83787084
v  0 1.0449156 0.60678774
v  0 1.1024027 0.84284794
v  -0.26397333 0.93473268 0.84097105
v  -0.32830808 0.90884942 0.68169743
v  -0.3315798 0.60501444 0.5982939
v  -0.46692702 0.67393064 0.81330192
v  0 0.3826578 1.2249517
v  -0.24197362 0.45804071 1.2204771
v  0.24197362 0.45804071 1.2204771
v  0.31558636 0.66759694 1.2557217
v  0.23358828 0.97917074 1.007145
v  0.19779065 0.86850506 1.2826654
v  0 1.0167313 1.0737203
v  0 0.90723091 1.298539
v  -0.19779065 0.86850506 1.2826654
v  -0.31558636 0.66759694 1.2557217
v  -0.23358828 0.97917074 1.007145
v  0.37453771 0.15844876 -0.22954763
v  0.40776247 0.14452697 -0.57721692
v  0.55859768 0.020515122 -0.58607465
v  0.53305501 0.089593567 -0.34284693
v  0.63945597 0.17926171 -0.58250129
v  0.64662707 0.020512737 -0.59057677
v  0.68671453 0.26511908 -0.24296184
v  0.65405816 0.082903303 -0.40857172
v  -0.37453771 0.15844876 -0.22954763
v  -0.40776247 0.14452697 -0.57721692
v  -0.68671453 0.26511908 -0.24296184
v  -0.63945597 0.17926171 -0.58250129
v  -0.55859768 0.020515122 -0.58607465
v  -0.64662707 0.020512737 -0.59057677
v  -0.65405816 0.082903303 -0.40857172
v  -0.53305501 0.089593567 -0.34284693
v  0.40574086 0.26373929 0.10211191
v  0.39635205 0.34793341 0.51848537
v  0.58466136 0.36313558 0.12373574
v  0.58044052 0.40975317 0.37501794
v  -0.40574086 0.26373929 0.10211191
v  -0.58466136 0.36313558 0.12373574
v  -0.39635205 0.34793341 0.51848537
v  -0.58044052 0.40975317 0.37501794
v  0.74036413 0.053892333 -0.066450797
v  0.59355658 0.053891022 -0.025817629
v  0.59355658 0.00038222317 0.0098376833
v  0.74036413 0.00038091186 -0.030795485
v  -0.44674903 0.05388971 -0.060657166
v  -0.59355658 0.053891022 -0.025817629
v  -0.59355658 0.00038222317 0.0098376833
v  -0.44674903 0.00038353447 -0.025001854
v  0.44674903 0.05388971 -0.060657166
v  0.44674903 0.00038353447 -0.025001854
v  -0.74036413 0.053892333 -0.066450797
v  -0.74036413 0.00038091186 -0.030795485
v  0.47677633 0.032384813 0.46516299
v  0.42605072 0.094073534 0.6635744
v  0.62576753 0.032384396 0.44927797
v  0.63125974 0.094073892 0.65297413
v  -0.47677633 0.032384813 0.46516299
v  -0.62576753 0.032384396 0.44927797
v  -0.42605072 0.094073534 0.6635744
v  -0.63125974 0.094073892 0.65297413
v  0.66522682 0.059336096 0.79487461
v  0.52865523 0.059335917 0.84196907
v  0.52865529 5.9604645e-08 0.89791685
v  0.68300754 -1.1920929e-07 0.85082233
v  -0.39208364 0.059335738 0.80547488
v  -0.52865523 0.059335917 0.84196907
v  -0.52865529 5.9604645e-08 0.89791685
v  -0.37430298 2.3841858e-07 0.86142266
v  0.39208364 0.059335738 0.80547488
v  0.37430298 2.3841858e-07 0.86142266
v  -0.66522682 0.059336096 0.79487461
v  -0.68300754 -1.1920929e-07 0.85082233
v  -0.19909519 1.0590765 0.83787084
v  -0.40700838 0.99381518 0.55862951
v  -0.40606007 1.2723321 0.62679553
v  -0.28559691 1.2669781 0.88768154
v  0.28559691 1.2669781 0.88768154
v  0.40606007 1.2723321 0.62679553
v  0.40700838 0.99381518 0.55862951
v  0 0.69293654 -0.88340712
v  -0.093449883 0.79965925 -0.86664057
v  0.093449883 0.79965925 -0.86664057
v  4.4406392e-05 0.88591582 -0.83680928
v  1.9631825e-05 0.74016714 -1.9944346
v  -0.049230207 0.79438663 -1.9944346
v  -0.029155593 0.79223073 -2.3516388
v  2.6458711e-05 0.76095378 -2.3533168
v  4.2170916e-05 0.83867824 -1.9944346
v  3.9426446e-05 0.81788862 -2.3501666
v  0.049291909 0.79450881 -1.9944346
v  0.029217426 0.7922982 -2.351635
v  3.2052514e-05 0.79447943 -2.494818
v  -0.072475567 0.79725718 -1.2382171
v  8.6027458e-06 0.71514058 -1.2382171
v  4.2746757e-05 0.86370933 -1.2382171
v  0.072475567 0.79725718 -1.2382171
v  -0.060883749 0.795883 -1.6163255
v  1.4117282e-05 0.72765386 -1.6163255
v  4.2458836e-05 0.85119379 -1.6163255
v  0.060883749 0.795883 -1.6163255
v  -0.85178363 0 0.1844357
v  -0.34412432 0 0.1844357
v  -0.34412432 0 -0.69971538
v  -0.85178363 0 -0.69971538
v  0.34412456 0 0.1844357
v  0.85178387 0 0.1844357
v  0.85178387 0 -0.69971538
v  0.34412456 0 -0.69971538
v  0.26683819 0 1.1151696
v  0.77449751 0 1.1151696
v  0.77449751 0 0.37207228
v  0.26683819 0 0.37207228
v  -0.77449769 5.2154064e-08 1.11517
v  -0.26683837 5.2154064e-08 1.11517
v  -0.26683837 5.2154064e-08 0.3720727
v  -0.77449769 5.2154064e-08 0.3720727
v  0.23170274 0.32950443 1.6594113
v  0.45389709 0.16364643 0.89855301
v  0.45389709 1.13012 0.89855301
v  0.23170274 0.79290992 1.6594113
v  -0.23170274 0.32950443 1.6594113
v  -0.45389709 0.16364643 0.89855301
v  -0.45389709 1.13012 0.89855301
v  -0.23170274 0.79290992 1.6594113
v  0.45662975 1.2243366 0.85584164
v  0.45662975 0.8793171 1.0283514
v  0.45662975 0.8793171 0.68333185
v  -0.45663002 1.2243364 0.85584199
v  -0.45663002 0.87931669 1.0283518
v  -0.45663002 0.87931669 0.6833322

# 0 UV coordinates

# 169 vertex normals
vn -0.58612573 -0.7133922 0.38409409
vn 2.530405e-08 -0.92138433 0.38865277
vn 1.6114654e-07 -0.31262001 0.94987833
vn -0.72589314 -0.13999856 0.67340881
vn 0.58612579 -0.71339214 0.38409397
vn 0.72589332 -0.13999853 0.67340863
vn 0.55322039 0.56152087 0.61533856
vn 1.1969819e-07 0.67615914 0.73675561
vn -0.55322033 0.56152087 0.61533868
vn -0.68030679 0.70673865 0.19417292
vn -0.0094870878 0.97953457 0.20105204
vn -0.0046610427 0.99948335 0.031803478
vn -0.69388306 0.71960229 0.026432972
vn 0.68279022 0.70580423 0.18877962
vn 0.69037646 0.72298551 0.025927952
vn 0.66906494 0.67133117 -0.31885213
vn -0.0036046349 0.93324363 -0.35922602
vn -0.66748965 0.66758901 -0.32982185
vn -0.11589219 -0.71200162 -0.69254798
vn -2.0527731e-08 -0.88334113 -0.46873063
vn -3.7382843e-08 -0.99329996 -0.11556405
vn -0.36040854 -0.88905513 0.28228828
vn 0.11549452 -0.71650821 -0.68795133
vn 0.35915953 -0.88650048 0.29175541
vn 0.61781627 -0.78628689 0.0074924403
vn -7.8531528e-08 -0.98969495 0.14319175
vn -0.61484444 -0.78861243 0.0075421901
vn 0.9746151 0.20525271 0.089424334
vn 0.9687019 0.23448819 0.081436269
vn 0.8287068 0.27103275 -0.48967957
vn -0.97023559 0.22163199 0.097580291
vn -0.96583378 0.24516807 0.084009953
vn -0.82324874 0.27815723 -0.49486357
vn -0.48665115 -0.87136537 0.062394738
vn -3.6537976e-08 -0.99967003 0.025685204
vn 2.6857464e-08 -0.99073941 0.1357765
vn -0.71021813 -0.69800109 0.091567479
vn 0.48665124 -0.87136525 0.062394813
vn 0.71021813 -0.69800097 0.091567323
vn 0.99160463 0.12752293 0.021400532
vn 0.99708712 0.055697601 0.052105799
vn 0.87488121 0.48410705 0.014931597
vn 0.94324869 0.23782536 0.23177768
vn -0.11353168 0.97451931 -0.19344924
vn -0.0096617145 0.9995448 -0.028577704
vn -7.5701394e-08 0.99912959 -0.041714508
vn -0.94324869 0.23782538 0.23177777
vn -0.87307626 0.48757887 0.0021268516
vn -0.99013001 0.13866201 0.020378541
vn -0.99708712 0.055697568 0.052105825
vn -7.8208613e-09 -0.9671092 0.2543616
vn -0.66742432 -0.66378564 0.33754015
vn 0.66742426 -0.6637857 0.33754018
vn 0.92680067 0.013358583 0.37531596
vn 0.73346859 0.57733709 0.35875568
vn 0.54343575 0.69455123 0.47146177
vn -3.3489744e-08 0.9177599 0.39713565
vn 5.7632019e-09 0.88391632 0.46764514
vn -0.54343575 0.69455129 0.47146177
vn -0.92680073 0.013358461 0.37531596
vn -0.73346853 0.57733703 0.35875574
vn -0.40373814 -0.53622895 0.74125159
vn -0.47098956 -0.7025969 -0.53341025
vn -0.50132006 -0.58637226 -0.63627481
vn -0.72716224 -0.11465219 0.67682332
vn 0.88857526 0.15941404 -0.43014085
vn 0.78648478 0.032078426 -0.61677599
vn 0.93415892 0.18834256 0.30310768
vn 0.94851798 0.29165912 0.1234845
vn 0.41320127 -0.53885174 0.73410052
vn 0.46083811 -0.69532108 -0.55150396
vn -0.92222732 0.20602645 0.32718486
vn -0.89611232 0.16549629 -0.41181755
vn 0.48070449 -0.55689287 -0.67734307
vn -0.76673222 -0.027042134 -0.64139718
vn -0.95679504 0.24629946 0.1545313
vn 0.73499823 -0.10501814 0.66988701
vn -0.33549201 -0.43511698 -0.83553469
vn -0.36737946 -0.40180212 0.83880121
vn 0.70009869 0.16165808 -0.69550586
vn 0.87522864 0.41210485 0.25326729
vn 0.33511677 -0.43184322 -0.83738166
vn -0.69900757 0.15896924 -0.69722098
vn 0.36737952 -0.40180194 0.83880115
vn -0.8771888 0.40496746 0.25795561
vn 0.53641069 0.84134889 0.066299416
vn 0.01352744 0.77093357 0.63677198
vn 0.014926508 0.55445296 0.83208108
vn 0.88433337 0.39765525 0.24459113
vn 0.53678268 0.84256375 0.044165477
vn -0.013527439 0.77093357 0.63677198
vn -0.014926508 0.55445296 0.83208108
vn 0.89462852 0.39525595 0.20835663
vn -0.53678292 0.84256363 0.044165421
vn -0.8946287 0.39525557 0.2083566
vn -0.00093410816 -0.99941629 -0.034147251
vn -0.00093410816 -0.99941635 -0.034147248
vn -0.00093410828 -0.99941635 -0.034147251
vn -0.00093410822 -0.99941635 -0.034147248
vn -0.00093410816 -0.99941623 -0.034147244
vn -0.53641069 0.84134901 0.066299468
vn -0.88433337 0.39765522 0.24459113
vn 0.00093410845 -0.99941641 -0.034147259
vn 0.00093410845 -0.99941629 -0.034147255
vn 0.00093410839 -0.99941629 -0.034147255
vn 0.00093410851 -0.99941635 -0.034147255
vn 0.00093410857 -0.99941647 -0.034147263
vn -0.73159724 -0.57697284 -0.36313608
vn -0.73730338 0.50899589 0.44419238
vn 0.90262014 -0.26510501 -0.33911073
vn 0.70850897 0.60666436 0.3605178
vn 0.73159778 -0.57697237 -0.36313555
vn -0.9026202 -0.26510528 -0.33911061
vn 0.73730326 0.50899637 0.44419226
vn -0.70850939 0.60666388 0.36051774
vn 0.57189685 0.79686826 0.1947691
vn 0.022745082 0.82506949 0.56457335
vn 0.022775298 0.7018739 0.71193695
vn 0.65961254 0.62058467 0.42401159
vn 0.63693655 0.75481218 0.15674922
vn -0.022745479 0.82506949 0.56457323
vn -0.022775346 0.70187396 0.71193713
vn 0.71207553 0.56376088 0.41847578
vn -0.63693643 0.75481242 0.15674935
vn -0.71207541 0.5637607 0.41847631
vn -0.0043902104 -0.99711031 -0.075839199
vn -0.0043902108 -0.99711037 -0.075839207
vn -0.0043902113 -0.99711043 -0.075839207
vn -0.0043902113 -0.99711031 -0.075839207
vn -0.57189715 0.79686803 0.19476905
vn -0.65961236 0.62058461 0.42401186
vn 0.0043902714 -0.99711037 -0.075839192
vn 0.0043902718 -0.99711037 -0.075839207
vn 0.0043902723 -0.99711043 -0.075839199
vn 0.0043902714 -0.99711043 -0.075839192
vn 0.11353115 0.97451937 -0.19344895
vn 0.78672427 0.10003278 -0.6091454
vn 0.8022269 0.23560889 -0.54856211
vn -0.91921169 -0.11630965 0.37619409
vn -0.89529592 -0.12701876 0.42697939
vn 0.87696183 0.42057928 -0.23248841
vn -0.9341684 -0.10858644 0.33990949
vn -0.87696189 0.42057937 -0.23248821
vn -0.80222696 0.23560882 -0.54856211
vn 0.91921169 -0.11630967 0.37619391
vn 0.9341684 -0.10858658 0.33990914
vn 0.89529592 -0.12701865 0.4269796
vn -0.78672439 0.10003247 -0.60914546
vn 1.2291593e-05 -0.34556165 -0.93839604
vn -0.5359596 0.22834538 -0.81277651
vn 0.5244174 0.22666565 -0.82073683
vn -0.0067250305 0.72800648 -0.68553734
vn 0.0012433813 -0.999138 -0.041492905
vn -0.99912995 -0.00037226386 -0.041703004
vn -0.9970544 -0.020734325 -0.073840775
vn 0.0011985264 -0.99697155 -0.077758543
vn -0.0012431421 0.99911636 -0.042009965
vn -0.0012149542 0.99760252 -0.069194056
vn 0.99913001 -0.00082889089 -0.04169412
vn 0.99704576 -0.021206809 -0.073824689
vn 0.00055249955 -0.19436893 -0.9809283
vn -0.99876964 0.018989932 -0.045810185
vn 0.0011467966 -0.99886286 -0.047662664
vn -0.0014884709 0.99893576 -0.04609824
vn 0.99877781 0.01852615 -0.045821231
vn -0.99950004 0.0001460436 -0.031617992
vn 0.0012940265 -0.99949002 -0.031905737
vn -0.0012936592 0.99947792 -0.032280952
vn 0.99950022 -0.00031524515 -0.031610686

# Mesh 'rat_mesh' with 152 faces
g rat_mesh
usemtl rat
f  1//1 2//2 3//3 4//4
f  2//2 5//5 6//6 3//3
f  3//3 6//6 7//7 8//8
f  4//4 3//3 8//8 9//9
f  10//10 11//11 12//12 13//13
f  11//11 14//14 15//15 12//12
f  12//12 15//15 16//16 17//17
f  13//13 12//12 17//17 18//18
f  19//19 20//20 21//21 22//22
f  20//20 23//23 24//24 21//21
f  21//21 24//24 25//25 26//26
f  22//22 21//21 26//26 27//27
f  28//28 25//25 24//24 29//29
f  29//29 30//30 16//16 15//15
f  14//14 28//28 29//29 15//15
f  22//22 27//27 31//31 32//32
f  32//32 31//31 10//10 13//13
f  33//33 32//32 13//13 18//18
f  34//34 35//35 36//36 37//37
f  35//35 38//38 39//39 36//36
f  39//39 38//38 40//40 41//41
f  40//40 42//42 43//43 41//41
f  44//44 42//42 45//45 46//46
f  47//47 48//48 49//49 50//50
f  49//49 34//34 37//37 50//50
f  37//37 36//36 51//51 52//52
f  36//36 39//39 53//53 51//51
f  51//51 53//53 5//5 2//2
f  52//52 51//51 2//2 1//1
f  39//39 41//41 54//54 53//53
f  41//41 43//43 55//55 54//54
f  54//54 56//56 7//7 6//6
f  53//53 54//54 6//6 5//5
f  57//57 55//55 44//44 46//46
f  58//58 59//59 9//9 8//8
f  56//56 58//58 8//8 7//7
f  47//47 50//50 60//60 61//61
f  50//50 37//37 52//52 60//60
f  60//60 52//52 1//1 4//4
f  59//59 60//60 4//4 9//9
f  62//62 63//63 64//64 65//65
f  63//63 66//66 67//67 64//64
f  66//66 68//68 69//69 67//67
f  68//68 62//62 65//65 69//69
f  19//19 22//22 70//70 71//71
f  22//22 32//32 72//72 70//70
f  32//32 33//33 73//73 72//72
f  33//33 19//19 71//71 73//73
f  23//23 30//30 66//66 63//63
f  30//30 29//29 68//68 66//66
f  29//29 24//24 62//62 68//68
f  24//24 23//23 63//63 62//62
f  73//73 71//71 74//74 75//75
f  72//72 73//73 75//75 76//76
f  70//70 72//72 76//76 77//77
f  71//71 70//70 77//77 74//74
f  48//48 45//45 11//11 10//10
f  45//45 42//42 14//14 11//11
f  40//40 28//28 14//14 42//42
f  26//26 25//25 38//38 35//35
f  27//27 26//26 35//35 34//34
f  10//10 31//31 49//49 48//48
f  38//38 25//25 78//78 79//79
f  25//25 28//28 80//80 78//78
f  28//28 40//40 81//81 80//80
f  40//40 38//38 79//79 81//81
f  31//31 27//27 82//82 83//83
f  27//27 34//34 84//84 82//82
f  34//34 49//49 85//85 84//84
f  49//49 31//31 83//83 85//85
f  86//86 87//87 88//88 89//89
f  90//90 91//91 92//92 93//93
f  69//69 65//65 94//94 86//86
f  65//65 64//64 95//95 94//94
f  64//96 67//97 89//98 88//99 95//100
f  67//67 69//69 86//86 89//89
f  90//90 96//101 91//91
f  76//76 75//75 97//102 96//101
f  75//103 74//104 93//105 92//106 97//107
f  74//74 77//77 90//90 93//93
f  79//79 78//78 98//108 99//109
f  78//78 80//80 100//110 98//108
f  80//80 81//81 101//111 100//110
f  81//81 79//79 99//109 101//111
f  83//83 82//82 102//112 103//113
f  82//82 84//84 104//114 102//112
f  84//84 85//85 105//115 104//114
f  85//85 83//83 103//113 105//115
f  106//116 107//117 108//118 109//119
f  110//120 111//121 112//122 113//123
f  101//111 99//109 114//124 106//116
f  99//109 98//108 115//125 114//124
f  98//126 100//127 109//128 108//129 115//128
f  100//110 101//111 106//116 109//119
f  110//120 116//130 111//121
f  105//115 103//113 117//131 116//130
f  103//132 102//133 113//134 112//132 117//135
f  102//112 104//114 110//120 113//123
f  46//46 118//136 61//61 57//57
f  45//45 48//48 118//136 46//46
f  61//61 60//60 59//59
f  57//57 61//61 59//59 58//58
f  56//56 55//55 57//57 58//58
f  54//54 55//55 56//56
f  118//136 119//137 120//138
f  48//48 47//47 120//139 119//140
f  61//61 118//136 121//141
f  47//47 61//61 121//142 120//139
f  44//44 122//143 123//144
f  55//55 43//43 123//145 122//146
f  43//43 42//42 124//147 123//145
f  42//42 44//44 124//148
f  19//19 125//149 20//20
f  18//18 126//150 33//33
f  16//16 127//151 128//152 17//17
f  125//149 23//23 20//20
f  33//33 126//150 125//149 19//19
f  125//149 127//151 30//30 23//23
f  129//153 130//154 131//155 132//156
f  130//154 133//157 134//158 131//155
f  133//157 135//159 136//160 134//158
f  135//159 129//153 132//156 136//160
f  132//156 131//155 137//161
f  131//155 134//158 137//161
f  134//158 136//160 137//161
f  136//160 132//156 137//161
f  125//149 126//150 138//162 139//163
f  126//150 128//152 140//164 138//162
f  128//152 127//151 141//165 140//164
f  127//151 125//149 139//163 141//165
f  139//163 138//162 142//166 143//167
f  138//162 140//164 144//168 142//166
f  140//164 141//165 145//169 144//168
f  141//165 139//163 143//167 145//169
f  143//167 142//166 130//154 129//153
f  142//166 144//168 133//157 130//154
f  144//168 145//169 135//159 133//157
f  145//169 143//167 129//153 135//159
f  108//118 107//117 114//124 115//125
f  112//122 111//121 116//130 117//131
f  88//88 87//87 94//94 95//95
f  92//92 91//91 96//101 97//102
f  86//86 94//94 87//87
f  77//77 76//76 96//101 90//90
f  106//116 114//124 107//117
f  104//114 105//115 116//130 110//120
f  128//152 126//150 18//18 17//17
f  127//151 16//16 30//30
f  121//141 118//136 120//138
f  118//136 48//48 119//137
f  44//44 55//55 122//143
f  124//148 44//44 123//144

# Mesh 'RootNode' with 4 faces
g RootNode
usemtl rat
l  146 147
l  147 148
l  148 149
l  149 146

# Mesh 'RootNode' with 4 faces
g RootNode
usemtl rat
l  150 151
l  151 152
l  152 153
l  153 150

# Mesh 'RootNode' with 4 faces
g RootNode
usemtl rat
l  154 155
l  155 156
l  156 157
l  157 154

# Mesh 'RootNode' with 4 faces
g RootNode
usemtl rat
l  158 159
l  159 160
l  160 161
l  161 158

# Mesh 'RootNode' with 16 faces
g RootNode
usemtl rat
l  162 163
l  163 164
l  164 165
l  165 162
l  162 166
l  166 167
l  167 168
l  168 169
l  169 165
l  165 164
l  164 168
l  168 167
l  167 163
l  163 162
l  162 166
l  166 169

# Mesh 'RootNode' with 3 faces
g RootNode
usemtl rat
l  170 171
l  171 172
l  172 170

# Mesh 'RootNode' with 3 faces
g RootNode
usemtl rat
l  173 174
l  174 175
l  175 173

